<svg xmlns="http://www.w3.org/2000/svg" xmlns:xlink="http://www.w3.org/1999/xlink" width="1003" height="214" viewBox="0 0 1003 214"><defs><path id="a" d="M-0.28515625,162.101562 C10.0755208,162.101562 18.0955404,159.392578 23.7749023,153.974609 C29.4542643,148.556641 32.2939453,139.788086 32.2939453,127.668945 L32.2939453,127.668945 L32.2939453,35.4921875 L17.3232422,35.4921875 L17.3232422,128.167969 C17.3232422,135.391927 16.6459961,140.298991 15.2915039,142.88916 C13.9370117,145.479329 12.1666667,147.332845 9.98046875,148.449707 C7.79427083,149.566569 5.18033854,150.125 2.13867187,150.125 C-2.32877604,150.125 -7.4140625,149.198242 -13.1171875,147.344727 L-13.1171875,147.344727 L-13.1171875,160.604492 C-7.88932292,161.602539 -3.61197917,162.101562 -0.28515625,162.101562 Z M102.157227,143.637695 C112.422852,143.637695 121.29834,141.273275 128.783691,136.544434 C136.269043,131.815592 141.924642,125.18571 145.750488,116.654785 C149.576335,108.123861 151.489258,98.6542969 151.489258,88.2460938 C151.489258,77.7903646 149.552572,68.2732747 145.679199,59.6948242 C141.805827,51.1163737 136.09082,44.4983724 128.53418,39.8408203 C120.977539,35.1832682 112.185221,32.8544922 102.157227,32.8544922 C92.1292318,32.8544922 83.3369141,35.1832682 75.7802734,39.8408203 C68.2236328,44.4983724 62.5086263,51.1163737 58.6352539,59.6948242 C54.7618815,68.2732747 52.8251953,77.7903646 52.8251953,88.2460938 C52.8251953,99.0820312 54.8569336,108.789225 58.9204102,117.367676 C62.9838867,125.946126 68.7107747,132.469076 76.1010742,136.936523 C83.4913737,141.403971 92.1767578,143.637695 102.157227,143.637695 Z M102.157227,132.445312 C91.5113932,132.445312 83.2775065,128.476888 77.4555664,120.540039 C71.6336263,112.60319 68.7226562,101.791016 68.7226562,88.1035156 C68.7226562,74.4635417 71.6573893,63.7107747 77.5268555,55.8452148 C83.3963216,47.9796549 91.6064453,44.046875 102.157227,44.046875 C112.708008,44.046875 120.918132,47.9796549 126.787598,55.8452148 C132.657064,63.7107747 135.591797,74.4635417 135.591797,88.1035156 C135.591797,101.791016 132.680827,112.60319 126.858887,120.540039 C121.036947,128.476888 112.80306,132.445312 102.157227,132.445312 Z M210.231445,141 L210.231445,96.6582031 L247.943359,35.4921875 L234.041992,35.4921875 L204.52832,83.1132812 L177.15332,35.4921875 L160.043945,35.4921875 L195.260742,96.9433594 L195.260742,141 L210.231445,141 Z M308.610352,143.637695 C312.887695,143.637695 316.85612,143.388184 320.515625,142.88916 C324.17513,142.390137 327.703939,141.605957 331.102051,140.536621 C334.500163,139.467285 338.361654,137.815755 342.686523,135.582031 L342.686523,135.582031 L342.686523,122.75 C337.838867,125.363932 333.775391,127.253092 330.496094,128.41748 C327.216797,129.581868 323.925618,130.4611 320.622559,131.055176 C317.319499,131.649251 314.004557,131.946289 310.677734,131.946289 C298.701172,131.946289 289.445475,127.94222 282.910645,119.934082 C276.375814,111.925944 273.108398,101.43457 273.108398,88.4599609 C273.108398,76.008138 275.948079,65.4930013 281.627441,56.9145508 C287.306803,48.3361003 296.467448,44.046875 309.109375,44.046875 C312.721354,44.046875 316.535319,44.3795573 320.55127,45.0449219 C324.56722,45.7102865 331.898112,47.8727214 342.543945,51.5322266 L342.543945,51.5322266 L342.543945,37.4882812 C329.854492,34.3990885 318.804688,32.8544922 309.394531,32.8544922 C291.714844,32.8544922 278.597656,38.0467122 270.042969,48.4311523 C261.488281,58.8155924 257.210938,72.1110026 257.210938,88.3173828 C257.210938,104.191081 261.333822,117.379557 269.57959,127.882812 C277.825358,138.386068 290.835612,143.637695 308.610352,143.637695 Z M426.451172,141 L426.451172,129.807617 L379.400391,129.807617 L379.400391,91.5966797 L416.256836,91.5966797 L416.256836,80.546875 L379.400391,80.546875 L379.400391,46.6845703 L423.385742,46.6845703 L423.385742,35.4921875 L364.429688,35.4921875 L364.429688,141 L426.451172,141 Z M527.539062,141 L527.539062,96.6582031 L565.250977,35.4921875 L551.349609,35.4921875 L521.835938,83.1132812 L494.460938,35.4921875 L477.351562,35.4921875 L512.568359,96.9433594 L512.568359,141 L527.539062,141 Z M623.850586,143.637695 C634.116211,143.637695 642.991699,141.273275 650.477051,136.544434 C657.962402,131.815592 663.618001,125.18571 667.443848,116.654785 C671.269694,108.123861 673.182617,98.6542969 673.182617,88.2460938 C673.182617,77.7903646 671.245931,68.2732747 667.372559,59.6948242 C663.499186,51.1163737 657.78418,44.4983724 650.227539,39.8408203 C642.670898,35.1832682 633.878581,32.8544922 623.850586,32.8544922 C613.822591,32.8544922 605.030273,35.1832682 597.473633,39.8408203 C589.916992,44.4983724 584.201986,51.1163737 580.328613,59.6948242 C576.455241,68.2732747 574.518555,77.7903646 574.518555,88.2460938 C574.518555,99.0820312 576.550293,108.789225 580.61377,117.367676 C584.677246,125.946126 590.404134,132.469076 597.794434,136.936523 C605.184733,141.403971 613.870117,143.637695 623.850586,143.637695 Z M623.850586,132.445312 C613.204753,132.445312 604.970866,128.476888 599.148926,120.540039 C593.326986,112.60319 590.416016,101.791016 590.416016,88.1035156 C590.416016,74.4635417 593.350749,63.7107747 599.220215,55.8452148 C605.089681,47.9796549 613.299805,44.046875 623.850586,44.046875 C634.401367,44.046875 642.611491,47.9796549 648.480957,55.8452148 C654.350423,63.7107747 657.285156,74.4635417 657.285156,88.1035156 C657.285156,101.791016 654.374186,112.60319 648.552246,120.540039 C642.730306,128.476888 634.496419,132.445312 623.850586,132.445312 Z M732.28125,143.637695 C740.788411,143.637695 747.62028,142.152507 752.776855,139.182129 C757.933431,136.211751 761.925618,132.195801 764.753418,127.134277 C767.581217,122.072754 768.995117,113.815104 768.995117,102.361328 L768.995117,102.361328 L768.995117,35.4921875 L755.87793,35.4921875 L755.87793,102.575195 C755.87793,111.510091 754.951172,117.878581 753.097656,121.680664 C751.244141,125.482747 748.630208,128.227376 745.255859,129.914551 C741.88151,131.601725 737.746745,132.445312 732.851562,132.445312 C725.104818,132.445312 719.06901,130.282878 714.744141,125.958008 C710.419271,121.633138 708.256836,113.672526 708.256836,102.076172 L708.256836,102.076172 L708.256836,35.4921875 L693.286133,35.4921875 L693.286133,101.933594 C693.286133,112.817057 694.711914,120.94401 697.563477,126.314453 C700.415039,131.684896 704.644857,135.914714 710.25293,139.003906 C715.861003,142.093099 723.203776,143.637695 732.28125,143.637695 Z M808.132812,141 L808.132812,59.5166016 L861.314453,141 L875.928711,141 L875.928711,35.4921875 L863.09668,35.4921875 L863.09668,116.975586 L809.986328,35.4921875 L795.300781,35.4921875 L795.300781,141 L808.132812,141 Z M949,143.637695 C953.5625,143.637695 957.97054,143.388184 962.224121,142.88916 C966.477702,142.390137 973.214518,140.809896 982.43457,138.148438 L982.43457,138.148438 L982.43457,95.4462891 L967.535156,95.4462891 L967.535156,129.807617 C963.447917,131.043294 960.334961,131.791829 958.196289,132.053223 C956.057617,132.314616 953.776367,132.445312 951.352539,132.445312 C941.799805,132.445312 934.195638,130.282878 928.540039,125.958008 C922.88444,121.633138 918.856608,116.179525 916.456543,109.597168 C914.056478,103.014811 912.856445,95.9215495 912.856445,88.3173828 C912.856445,76.0556641 915.684245,65.6118164 921.339844,56.9858398 C926.995443,48.3598633 936.167969,44.046875 948.857422,44.046875 C952.421875,44.046875 956.212077,44.3676758 960.228027,45.0092773 C964.243978,45.6508789 971.598633,47.8014323 982.291992,51.4609375 L982.291992,51.4609375 L982.291992,37.6308594 C970.695638,34.4466146 959.598307,32.8544922 949,32.8544922 C931.462891,32.8544922 918.405111,38.0348307 909.82666,48.3955078 C901.24821,58.7561849 896.958984,72.0397135 896.958984,88.2460938 C896.958984,98.844401 898.848145,108.444661 902.626465,117.046875 C906.404785,125.649089 911.917806,132.231445 919.165527,136.793945 C926.413249,141.356445 936.358073,143.637695 949,143.637695 Z"></path><path id="b" d="M137.815961,243.192383 C139.985883,243.192383 142.043012,243.07959 143.987348,242.854004 C145.931684,242.628418 149.030805,241.967773 153.284711,240.87207 L153.284711,240.87207 L153.284711,220.34375 L143.35893,220.34375 L143.35893,236.038086 C141.833539,236.360352 140.501508,236.521484 139.362836,236.521484 C134.099164,236.521484 130.017133,234.867188 127.116742,231.558594 C124.216352,228.25 122.766156,223.791992 122.766156,218.18457 C122.766156,213.049805 123.996137,208.677734 126.456098,205.068359 C128.916059,201.458984 132.939008,199.654297 138.524945,199.654297 C140.243695,199.654297 142.048383,199.793945 143.939008,200.073242 C145.829633,200.352539 148.934125,201.233398 153.252484,202.71582 L153.252484,202.71582 L153.252484,194.949219 C148.117719,193.724609 142.939984,193.112305 137.719281,193.112305 C131.531781,193.112305 126.627973,194.191895 123.007855,196.351074 C119.387738,198.510254 116.686078,201.48584 114.902875,205.277832 C113.119672,209.069824 112.22807,213.339844 112.22807,218.087891 C112.22807,225.349609 114.258344,231.349121 118.318891,236.086426 C122.379438,240.82373 128.878461,243.192383 137.815961,243.192383 Z M195.823773,242 L195.823773,235.232422 L174.328656,235.232422 L174.328656,194.304688 L164.402875,194.304688 L164.402875,242 L195.823773,242 Z M204.782758,242 L209.745648,229.270508 L229.468305,229.270508 L234.431195,242 L244.614789,242 L226.052289,194.304688 L216.126508,194.304688 L197.564008,242 L204.782758,242 Z M227.019086,222.921875 L212.194867,222.921875 L219.606977,203.908203 L227.019086,222.921875 Z M262.049359,243.192383 C268.494672,243.192383 273.194379,241.806641 276.14848,239.035156 C279.102582,236.263672 280.579633,232.922852 280.579633,229.012695 C280.579633,226.28418 279.870648,223.824219 278.45268,221.632812 C277.013227,219.462891 273.683148,216.90625 268.462445,213.962891 L268.462445,213.962891 L265.04643,212.061523 C262.081586,210.385742 260.244672,209.064453 259.535688,208.097656 C258.805219,207.130859 258.439984,206.088867 258.439984,204.97168 C258.439984,203.510742 259.05766,202.259277 260.293012,201.217285 C261.528363,200.175293 263.32768,199.654297 265.690961,199.654297 C268.548383,199.654297 272.404828,200.567383 277.260297,202.393555 L277.260297,202.393555 L277.260297,194.755859 C272.490766,193.660156 268.204633,193.112305 264.401898,193.112305 C259.310102,193.112305 255.405316,194.390625 252.687543,196.947266 C249.96977,199.503906 248.610883,202.576172 248.610883,206.164062 C248.610883,209.021484 249.427289,211.535156 251.060102,213.705078 C252.67143,215.875 255.754438,218.238281 260.309125,220.794922 L260.309125,220.794922 L263.499555,222.567383 C266.464398,224.243164 268.312055,225.607422 269.042523,226.660156 C269.772992,227.734375 270.138227,228.9375 270.138227,230.269531 C270.138227,232.009766 269.461469,233.50293 268.107953,234.749023 C266.754438,235.995117 264.70268,236.618164 261.95268,236.618164 C260.427289,236.618164 258.756879,236.467773 256.941449,236.166992 C255.12602,235.866211 252.381391,234.942383 248.707563,233.395508 L248.707563,233.395508 L248.707563,241.581055 C253.777875,242.655273 258.225141,243.192383 262.049359,243.192383 Z M311.710492,243.192383 C313.880414,243.192383 315.937543,243.07959 317.881879,242.854004 C319.826215,242.628418 322.925336,241.967773 327.179242,240.87207 L327.179242,240.87207 L327.179242,220.34375 L317.253461,220.34375 L317.253461,236.038086 C315.72807,236.360352 314.396039,236.521484 313.257367,236.521484 C307.993695,236.521484 303.911664,234.867188 301.011273,231.558594 C298.110883,228.25 296.660688,223.791992 296.660688,218.18457 C296.660688,213.049805 297.890668,208.677734 300.350629,205.068359 C302.81059,201.458984 306.833539,199.654297 312.419477,199.654297 C314.138227,199.654297 315.942914,199.793945 317.833539,200.073242 C319.724164,200.352539 322.828656,201.233398 327.147016,202.71582 L327.147016,202.71582 L327.147016,194.949219 C322.01225,193.724609 316.834516,193.112305 311.613813,193.112305 C305.426313,193.112305 300.522504,194.191895 296.902387,196.351074 C293.28227,198.510254 290.580609,201.48584 288.797406,205.277832 C287.014203,209.069824 286.122602,213.339844 286.122602,218.087891 C286.122602,225.349609 288.152875,231.349121 292.213422,236.086426 C296.273969,240.82373 302.772992,243.192383 311.710492,243.192383 Z M359.534711,243.192383 C364.497602,243.192383 368.81059,242.166504 372.473676,240.114746 C376.136762,238.062988 378.924359,235.108887 380.836469,231.252441 C382.748578,227.395996 383.704633,223.029297 383.704633,218.152344 C383.704633,213.296875 382.748578,208.935547 380.836469,205.068359 C378.924359,201.201172 376.120648,198.241699 372.425336,196.189941 C368.730023,194.138184 364.433148,193.112305 359.534711,193.112305 C354.614789,193.112305 350.307172,194.138184 346.611859,196.189941 C342.916547,198.241699 340.112836,201.201172 338.200727,205.068359 C336.288617,208.935547 335.332563,213.296875 335.332563,218.152344 C335.332563,223.029297 336.288617,227.395996 338.200727,231.252441 C340.112836,235.108887 342.905805,238.062988 346.579633,240.114746 C350.253461,242.166504 354.57182,243.192383 359.534711,243.192383 Z M359.534711,236.618164 C354.91557,236.618164 351.483441,234.743652 349.238324,230.994629 C346.993207,227.245605 345.870648,222.954102 345.870648,218.120117 C345.870648,213.264648 346.998578,208.973145 349.254438,205.245605 C351.510297,201.518066 354.937055,199.654297 359.534711,199.654297 C364.110883,199.654297 367.526898,201.518066 369.782758,205.245605 C372.038617,208.973145 373.166547,213.264648 373.166547,218.120117 C373.166547,222.954102 372.043988,227.245605 369.798871,230.994629 C367.553754,234.743652 364.132367,236.618164 359.534711,236.618164 Z M408.712445,242 L416.414594,209.290039 L423.76225,242 L433.236859,242 L445.740766,194.304688 L438.876508,194.304688 L429.724164,229.012695 L421.925336,194.304688 L413.643109,194.304688 L405.425336,229.206055 L396.724164,194.304688 L387.346234,194.304688 L399.237836,242 L408.712445,242 Z"></path><path id="c" d="M563.741813,242 L563.741813,235.232422 L542.246695,235.232422 L542.246695,194.304688 L532.320914,194.304688 L532.320914,242 L563.741813,242 Z M591.940055,243.192383 C596.902945,243.192383 601.215934,242.166504 604.87902,240.114746 C608.542105,238.062988 611.329703,235.108887 613.241813,231.252441 C615.153922,227.395996 616.109977,223.029297 616.109977,218.152344 C616.109977,213.296875 615.153922,208.935547 613.241813,205.068359 C611.329703,201.201172 608.525992,198.241699 604.83068,196.189941 C601.135367,194.138184 596.838492,193.112305 591.940055,193.112305 C587.020133,193.112305 582.712516,194.138184 579.017203,196.189941 C575.321891,198.241699 572.51818,201.201172 570.60607,205.068359 C568.693961,208.935547 567.737906,213.296875 567.737906,218.152344 C567.737906,223.029297 568.693961,227.395996 570.60607,231.252441 C572.51818,235.108887 575.311148,238.062988 578.984977,240.114746 C582.658805,242.166504 586.977164,243.192383 591.940055,243.192383 Z M591.940055,236.618164 C587.320914,236.618164 583.888785,234.743652 581.643668,230.994629 C579.398551,227.245605 578.275992,222.954102 578.275992,218.120117 C578.275992,213.264648 579.403922,208.973145 581.659781,205.245605 C583.915641,201.518066 587.342398,199.654297 591.940055,199.654297 C596.516227,199.654297 599.932242,201.518066 602.188102,205.245605 C604.443961,208.973145 605.571891,213.264648 605.571891,218.120117 C605.571891,222.954102 604.449332,227.245605 602.204215,230.994629 C599.959098,234.743652 596.537711,236.618164 591.940055,236.618164 Z M632.996695,242 L632.996695,209.418945 L654.942984,242 L663.837516,242 L663.837516,194.304688 L655.877555,194.304688 L655.877555,226.885742 L633.770133,194.304688 L625.036734,194.304688 L625.036734,242 L632.996695,242 Z M695.419547,242 C701.177359,242 705.710563,240.915039 709.019156,238.745117 C712.32775,236.575195 714.846793,233.621094 716.576285,229.882812 C718.305777,226.144531 719.170523,221.901367 719.170523,217.15332 C719.170523,212.297852 718.262809,208.156738 716.447379,204.72998 C714.631949,201.303223 712.193473,198.708984 709.131949,196.947266 C706.070426,195.185547 701.789664,194.304688 696.289664,194.304688 L696.289664,194.304688 L675.761344,194.304688 L675.761344,242 L695.419547,242 Z M693.099234,235.232422 L685.687125,235.232422 L685.687125,200.84668 L691.681266,200.84668 C696.558219,200.84668 700.022574,201.518066 702.074332,202.86084 C704.12609,204.203613 705.732047,206.174805 706.892203,208.774414 C708.052359,211.374023 708.632438,214.360352 708.632438,217.733398 C708.632438,221.256836 708.036246,224.452637 706.843863,227.320801 C705.65148,230.188965 704.02941,232.224609 701.977652,233.427734 C699.925895,234.630859 696.966422,235.232422 693.099234,235.232422 L693.099234,235.232422 Z M749.334586,243.192383 C754.297477,243.192383 758.610465,242.166504 762.273551,240.114746 C765.936637,238.062988 768.724234,235.108887 770.636344,231.252441 C772.548453,227.395996 773.504508,223.029297 773.504508,218.152344 C773.504508,213.296875 772.548453,208.935547 770.636344,205.068359 C768.724234,201.201172 765.920523,198.241699 762.225211,196.189941 C758.529898,194.138184 754.233023,193.112305 749.334586,193.112305 C744.414664,193.112305 740.107047,194.138184 736.411734,196.189941 C732.716422,198.241699 729.912711,201.201172 728.000602,205.068359 C726.088492,208.935547 725.132438,213.296875 725.132438,218.152344 C725.132438,223.029297 726.088492,227.395996 728.000602,231.252441 C729.912711,235.108887 732.70568,238.062988 736.379508,240.114746 C740.053336,242.166504 744.371695,243.192383 749.334586,243.192383 Z M749.334586,236.618164 C744.715445,236.618164 741.283316,234.743652 739.038199,230.994629 C736.793082,227.245605 735.670523,222.954102 735.670523,218.120117 C735.670523,213.264648 736.798453,208.973145 739.054313,205.245605 C741.310172,201.518066 744.73693,199.654297 749.334586,199.654297 C753.910758,199.654297 757.326773,201.518066 759.582633,205.245605 C761.838492,208.973145 762.966422,213.264648 762.966422,218.120117 C762.966422,222.954102 761.843863,227.245605 759.598746,230.994629 C757.353629,234.743652 753.932242,236.618164 749.334586,236.618164 Z M790.391227,242 L790.391227,209.418945 L812.337516,242 L821.232047,242 L821.232047,194.304688 L813.272086,194.304688 L813.272086,226.885742 L791.164664,194.304688 L782.431266,194.304688 L782.431266,242 L790.391227,242 Z"></path></defs><g fill="none" transform="translate(15.724 -31)"><use xlink:href="#a" fill="#221F21"></use><use xlink:href="#b" fill="#B3A67E"></use><use xlink:href="#c" fill="#B3A67E"></use></g></svg>